<svg id="Layer_1" data-name="Layer 1" xmlns="http://www.w3.org/2000/svg" viewBox="0 0 719 328">
  <title>kro-ncrv-logo</title>
  <path d="M336.82,93l35-33.77a5.53,5.53,0,0,0,1.74-3.86,4.43,4.43,0,0,0-4.73-4.52H343.28a7.39,7.39,0,0,0-5.45,2.73L307.66,81.8V27.5a4.79,4.79,0,0,0-5.15-5.17H281.37a4.78,4.78,0,0,0-5.14,5.17V157.82a4.79,4.79,0,0,0,5.14,5.18h21.15a4.79,4.79,0,0,0,5.14-5.18V119.88L314,114l29.63,45.59a6.42,6.42,0,0,0,6,3.44h23.67c3,0,4.94-1.86,4.94-4.74a5.14,5.14,0,0,0-.9-3.13L336.82,93m63,70h21.13a4.79,4.79,0,0,0,5.15-5.18V103.14c0-22.58,10.69-25.47,20-25.47,6.42,0,12.19,1.6,20.65,5.7a6.38,6.38,0,0,0,2.59.63c2.35,0,4.74-1.66,4.74-5.36V59c0-2.92-.78-5.16-4.6-6.69A62.59,62.59,0,0,0,449,48.79a40.5,40.5,0,0,0-23,6.72,4.75,4.75,0,0,0-5.14-4.63H399.81a4.79,4.79,0,0,0-5.16,5.17V157.84a4.8,4.8,0,0,0,5.16,5.18m-63.32,24.72a49.17,49.17,0,0,0-28.83,8.77V195a4.78,4.78,0,0,0-5.15-5.14H281.37a4.76,4.76,0,0,0-5.14,5.14V296.8a4.78,4.78,0,0,0,5.14,5.17h21.14a4.79,4.79,0,0,0,5.15-5.17V248.86c0-20.18,8.34-32.22,22.3-32.22,5.38,0,9.16,1.44,11.54,4.38s3.59,7.75,3.59,14.55V296.8a4.79,4.79,0,0,0,5.16,5.17h21.12a4.78,4.78,0,0,0,5.14-5.17V226.47c0-23.88-15.32-38.73-40-38.73m260.73,3.56a61.84,61.84,0,0,0-20.43-3.56,40.66,40.66,0,0,0-23,6.72,4.72,4.72,0,0,0-5.11-4.6H527.58a5.2,5.2,0,0,0-3.77,1.38,5.08,5.08,0,0,0-1.38,3.76l0,101.79a4.8,4.8,0,0,0,5.17,5.17h21.14a4.78,4.78,0,0,0,5.14-5.17V242.1c0-12.59,2.37-25.46,20-25.46,6.48,0,12.24,1.6,20.63,5.7a6.7,6.7,0,0,0,2.6.62,4.62,4.62,0,0,0,3.2-1.22,5.41,5.41,0,0,0,1.52-4.11V198c0-2.92-.76-5.17-4.58-6.66m116.85-1.44h-22.4a5.7,5.7,0,0,0-5.83,4.15l-22,63.17-22-63a5.78,5.78,0,0,0-5.88-4.33H613.49a4.66,4.66,0,0,0-4.92,4.92,8.86,8.86,0,0,0,.4,2.58L647.05,298c1.48,3.44,4,4,5.34,4h22.79c1.67,0,4-.71,5.39-4.1l38.07-100.62a7.78,7.78,0,0,0,.36-2.46,4.67,4.67,0,0,0-4.93-4.93m-176.64-26a58,58,0,1,0-58-58A58.06,58.06,0,0,0,537.43,163.9Zm0-85.27a27.27,27.27,0,1,1-27.28,27.27A27.31,27.31,0,0,1,537.43,78.63Zm-35,178.46h-25a4.4,4.4,0,0,0-4.27,3.18,27.54,27.54,0,1,1,.12-28.55,4.91,4.91,0,0,0,4.32,3.16h24.93a4.11,4.11,0,0,0,2.85-1.5,4.45,4.45,0,0,0,.52-3.83,58.57,58.57,0,1,0,.2,32,3.46,3.46,0,0,0-.55-3.09,4.38,4.38,0,0,0-3.14-1.36M109.36,218.65A109.22,109.22,0,0,1,14.75,164a109.32,109.32,0,1,0,204,54.66A108.66,108.66,0,0,0,204,164a109.21,109.21,0,0,1-94.61,54.66m0-109.32A109.21,109.21,0,0,1,204,164,109.31,109.31,0,1,0,0,109.32,108.84,108.84,0,0,0,14.75,164a109.23,109.23,0,0,1,94.61-54.66" fill="#280096"/>
</svg>
